<svg xmlns="http://www.w3.org/2000/svg" width="18" height="18" fill="none"><path fill="#A445ED" d="M13.193 12.132a.75.75 0 0 0-1.06 1.061l1.06-1.06Zm2.827 4.949a.75.75 0 0 0 1.06-1.061l-1.06 1.06ZM2.952 12.377l.53-.53-.53.53Zm2.162 1.444-.287.693.287-.692Zm5.1 0 .288.693-.287-.692Zm2.163-1.444-.53-.53.53.53Zm1.444-2.162.693.287-.692-.287Zm-1.444-7.263-.53.53.53-.53Zm-.245 10.241 3.888 3.888 1.06-1.061-3.887-3.888-1.06 1.061ZM.25 7.664c0 .974.192 1.938.564 2.838L2.2 9.928a5.915 5.915 0 0 1-.45-2.264H.25Zm.564 2.838c.373.9.92 1.717 1.608 2.405l1.06-1.06A5.913 5.913 0 0 1 2.2 9.926l-1.386.575Zm1.608 2.405a7.415 7.415 0 0 0 2.405 1.607l.574-1.385a5.915 5.915 0 0 1-1.919-1.282l-1.06 1.06Zm2.405 1.607c.9.373 1.864.565 2.837.565v-1.5a5.915 5.915 0 0 1-2.263-.45l-.574 1.385Zm2.837.565c.974 0 1.938-.192 2.838-.565l-.574-1.385a5.916 5.916 0 0 1-2.264.45v1.5Zm2.838-.565a7.414 7.414 0 0 0 2.405-1.607l-1.06-1.06c-.55.549-1.202.984-1.92 1.282l.575 1.385Zm2.405-1.607a7.414 7.414 0 0 0 1.607-2.405l-1.385-.574a5.914 5.914 0 0 1-1.282 1.918l1.06 1.061Zm1.607-2.405c.373-.9.565-1.864.565-2.838h-1.5c0 .777-.153 1.546-.45 2.264l1.385.574Zm.565-2.838a7.414 7.414 0 0 0-2.172-5.242l-1.06 1.06a5.914 5.914 0 0 1 1.732 4.182h1.5Zm-2.172-5.242A7.414 7.414 0 0 0 7.664.25v1.5c1.569 0 3.073.623 4.182 1.732l1.061-1.06ZM7.664.25a7.414 7.414 0 0 0-5.242 2.172l1.06 1.06A5.914 5.914 0 0 1 7.664 1.75V.25ZM2.422 2.422A7.414 7.414 0 0 0 .25 7.664h1.5c0-1.568.623-3.073 1.732-4.182l-1.06-1.06Z"/></svg>